<svg xmlns="http://www.w3.org/2000/svg" width="101" height="24.029" viewBox="0 0 101 24.029">
  <g id="logo" transform="translate(-338.5 -5039)">
    <g id="Tabbar" transform="translate(338.5 5039)">
      <g id="Home" transform="translate(0 0)">
        <path id="Fill_49" data-name="Fill 49" d="M26.174,0H1.092A1,1,0,0,0,0,.87V.912a1,1,0,0,0,1.092.869H26.174A1,1,0,0,0,27.265.912V.87A1,1,0,0,0,26.174,0" transform="translate(0 22.249)" fill="#fff"/>
        <path id="Fill_50" data-name="Fill 50" d="M2.765,9.692H1.021A1.029,1.029,0,0,1,0,8.657V1.036A1.03,1.03,0,0,1,1.021,0H2.765A1.031,1.031,0,0,1,3.789,1.036V8.657A1.03,1.03,0,0,1,2.765,9.692Zm15.331,0H16.355a1.028,1.028,0,0,1-1.02-1.034V1.036A1.029,1.029,0,0,1,16.355,0H18.1A1.031,1.031,0,0,1,19.12,1.036V8.657A1.03,1.03,0,0,1,18.1,9.691Zm-7.665,0H8.689A1.029,1.029,0,0,1,7.667,8.657V1.036A1.03,1.03,0,0,1,8.689,0h1.743a1.031,1.031,0,0,1,1.023,1.036V8.657A1.03,1.03,0,0,1,10.432,9.691Z" transform="translate(4.074 8.066)" fill="#fff"/>
        <path id="Fill_51" data-name="Fill 51" d="M26.627,5.094,13.816.034a.8.8,0,0,0-.461,0L.536,5.094a.7.7,0,0,0-.527.778.752.752,0,0,0,.756.6h25.63a.749.749,0,0,0,.76-.6.7.7,0,0,0-.528-.778" transform="translate(0.052)" fill="#fff"/>
        <path id="Fill_112" data-name="Fill 112" d="M24.6.869V.911a1,1,0,0,1-1.091.87H1.093A1,1,0,0,1,0,.911V.869A1,1,0,0,1,1.093,0H23.5A1,1,0,0,1,24.6.869" transform="translate(1.334 19.19)" fill="#fff"/>
      </g>
    </g>
    <text id="FinApp" transform="translate(407.5 5057.029)" fill="#fff" font-size="17" font-family="AvenirLTStd-Black, Avenir LT Std" font-weight="800" letter-spacing="0.05em"><tspan x="-31.263" y="0">FinApp</tspan></text>
  </g>
</svg>
